<svg id="ae899382-6364-48db-afcb-8608c496d775" data-name="Layer 1" xmlns="http://www.w3.org/2000/svg" viewBox="0 0 171.93 173.97"><defs><style>.b32c39dd-0100-41a0-bb4f-fa846f61385c{fill:#fff;}</style></defs><title>linkedIn</title><path class="b32c39dd-0100-41a0-bb4f-fa846f61385c" d="M462.57,194.82H325.3A17.36,17.36,0,0,0,308,212.21V351.4a17.36,17.36,0,0,0,17.33,17.39H462.57A17.36,17.36,0,0,0,479.9,351.4V212.21A17.36,17.36,0,0,0,462.57,194.82ZM363.14,332.47H340V258.05h23.13Zm-11.72-83.55c-7.3,0-12-5.17-12-11.56,0-6.55,4.87-11.57,12.32-11.57s12,5,12.18,11.57C363.9,243.75,359.18,248.92,351.42,248.92Zm96.18,83.55H424.47V291.23c0-9.59-3.35-16.13-11.72-16.13-6.4,0-10.2,4.41-11.87,8.67a16.65,16.65,0,0,0-.77,5.79v42.91H377V281.79c0-9.28-.3-17-.6-23.74h20.08l1.07,10.35H398c3-4.87,10.5-12,23-12,15.21,0,26.63,10.2,26.63,32.11Z" transform="translate(-307.97 -194.82)"/></svg>