<?xml version="1.0" encoding="utf-8"?>
<!-- Generator: Adobe Illustrator 24.0.0, SVG Export Plug-In . SVG Version: 6.00 Build 0)  -->
<svg version="1.1" id="Capa_1" xmlns="http://www.w3.org/2000/svg" xmlns:xlink="http://www.w3.org/1999/xlink" x="0px" y="0px"
	 viewBox="0 0 402 402" style="enable-background:new 0 0 402 402;" xml:space="preserve">
<style type="text/css">
	.st0{fill:#FFFFFF;stroke:#000000;stroke-miterlimit:10;}
</style>
<g>
	<path class="st0" d="M401.1,311.5c-1.1-3.4-8.4-8.5-21.7-15.1c-3.6-2.1-8.8-4.9-15.4-8.6c-6.7-3.6-12.7-7-18.1-10
		c-5.4-3-10.5-6-15.3-8.8c-0.8-0.6-3.1-2.2-7.1-5c-4-2.8-7.4-4.8-10.1-6.1c-2.8-1.3-5.5-2-8.1-2c-3.8,0-8.6,2.7-14.3,8.1
		c-5.7,5.4-10.9,11.3-15.7,17.7c-4.8,6.4-9.8,12.3-15.1,17.7c-5.3,5.4-9.7,8.1-13.1,8.1c-1.7,0-3.9-0.5-6.4-1.4
		c-2.6-1-4.5-1.8-5.9-2.4c-1.3-0.7-3.6-2-6.8-4c-3.2-2-5-3.1-5.4-3.3c-26.1-14.5-48.4-31-67.1-49.7c-18.6-18.7-35.2-41-49.7-67.1
		c-0.2-0.4-1.3-2.2-3.3-5.4c-2-3.2-3.3-5.5-4-6.9c-0.7-1.3-1.5-3.3-2.4-5.9s-1.4-4.7-1.4-6.4c0-3.4,2.7-7.8,8.1-13.1
		c5.4-5.3,11.3-10.4,17.7-15.1c6.4-4.8,12.3-10,17.7-15.7c5.4-5.7,8.1-10.5,8.1-14.3c0-2.7-0.7-5.4-2-8.1c-1.3-2.8-3.4-6.1-6.1-10.1
		c-2.8-4-4.4-6.4-5-7.1c-2.9-4.8-5.8-9.8-8.8-15.3c-3-5.4-6.4-11.5-10-18.1c-3.6-6.7-6.5-11.8-8.6-15.4C99,9.2,93.9,2,90.5,0.9
		c-1.3-0.6-3.3-0.9-6-0.9c-5.1,0-11.8,0.9-20.1,2.9c-8.3,1.9-14.8,3.9-19.6,6c-9.5,4-19.6,15.6-30.3,34.8C4.9,61.6,0,79.3,0,96.8
		c0,5.1,0.3,10.1,1,15c0.7,4.9,1.9,10.3,3.6,16.4c1.7,6.1,3.1,10.6,4.1,13.6c1,2.9,3,8.2,5.9,15.8c2.9,7.6,4.6,12.3,5.1,14
		c6.7,18.7,14.6,35.3,23.7,50c15,24.4,35.5,49.5,61.5,75.5c26,26,51.2,46.5,75.5,61.5c14.7,9.1,31.3,17,50,23.7
		c1.7,0.6,6.4,2.3,14,5.1c7.6,2.9,12.9,4.8,15.8,5.9c2.9,1,7.5,2.4,13.6,4.1c6.1,1.7,11.6,2.9,16.4,3.6c4.9,0.7,9.9,1,15,1
		c17.5,0,35.2-4.9,53.1-14.6c19.2-10.7,30.8-20.7,34.8-30.3c2.1-4.8,4.1-11.3,6-19.6c1.9-8.3,2.9-15,2.9-20.1
		C402,314.8,401.7,312.8,401.1,311.5z"/>
</g>
</svg>
