<?xml version="1.0" encoding="utf-8"?>
<!-- Generator: Adobe Illustrator 24.0.0, SVG Export Plug-In . SVG Version: 6.00 Build 0)  -->
<svg version="1.1" id="Layer_1" xmlns="http://www.w3.org/2000/svg" xmlns:xlink="http://www.w3.org/1999/xlink" x="0px" y="0px"
	 viewBox="0 0 120.8 117.8" style="enable-background:new 0 0 120.8 117.8;" xml:space="preserve">
<style type="text/css">
	.st0{fill-rule:evenodd;clip-rule:evenodd;fill:#FFFFFF;}
</style>
<path class="st0" d="M60.4,2.1C29,2.1,3.6,27.5,3.6,58.8c0,25.1,16.3,46.3,38.8,53.9c2.8,0.5,3.9-1.2,3.9-2.7
	c0-1.4-0.1-5.8-0.1-10.6c-15.8,3.4-19.1-6.7-19.1-6.7c-2.6-6.6-6.3-8.3-6.3-8.3c-5.1-3.5,0.4-3.5,0.4-3.5c5.7,0.4,8.7,5.8,8.7,5.8
	c5.1,8.7,13.3,6.2,16.5,4.7c0.5-3.7,2-6.2,3.6-7.6c-12.6-1.4-25.9-6.3-25.9-28c0-6.2,2.2-11.3,5.8-15.2c-0.6-1.4-2.5-7.2,0.5-15
	c0,0,4.8-1.5,15.6,5.8c4.5-1.3,9.4-1.9,14.2-1.9c4.8,0,9.7,0.7,14.2,1.9c10.8-7.3,15.6-5.8,15.6-5.8c3.1,7.8,1.1,13.6,0.6,15
	c3.6,4,5.8,9,5.8,15.2c0,21.8-13.3,26.6-25.9,28c2,1.8,3.8,5.2,3.8,10.5c0,7.6-0.1,13.7-0.1,15.6c0,1.5,1,3.3,3.9,2.7
	c22.5-7.5,38.8-28.8,38.8-53.8C117.1,27.5,91.7,2.1,60.4,2.1z"/>
</svg>
